<?xml version="1.0" encoding="utf-8"?>
<!-- Generator: Adobe Illustrator 25.2.1, SVG Export Plug-In . SVG Version: 6.00 Build 0)  -->
<svg version="1.1" id="Layer_1" xmlns="http://www.w3.org/2000/svg" xmlns:xlink="http://www.w3.org/1999/xlink" x="0px" y="0px"
	 viewBox="0 0 1920 1080" style="enable-background:new 0 0 1920 1080;" xml:space="preserve">
<style type="text/css">
	.st0{stroke:#000000;stroke-width:0.5;stroke-miterlimit:10;}
	.st1{fill:#ED1C24;stroke:#000000;stroke-width:0.5;stroke-miterlimit:10;}
	.st2{fill:#FBB03B;stroke:#000000;stroke-width:0.5;stroke-miterlimit:10;}
	.st3{fill:#FF0000;stroke:#000000;stroke-width:0.5;stroke-miterlimit:10;}
</style>
<path class="st0" d="M1231.4,1071c0,0-205.13-228.76-400.54-218.84c-4.32,0.22-7.55-3.05-6.86-6.67
	c8.24-43.48-91.94-93.54-130.7-217.82c-15.54-49.82-22.16-102.19-41.11-128.81c-2.97-4.17,1.36-9.32,6.99-8.35
	c32.59,5.61,102.5,18.54,151.69,34.04c-210.06-34.49-246.36-71.8-385.96-206.48c-4.19-4.04,0.05-10.3,6.27-9.24l150.66,25.55
	c8.41,1.43,6.28,12.15-2.2,11.09c-122.68-15.36-219.36-70.89-288.29-174.01c-2.91-4.35,1.8-9.54,7.49-8.24l206.88,47.09
	C324.8,187.99,256.35,126.22,222.2,6.98c-1.33-4.65,4.35-8.52,9.39-6.38C281.68,21.89,474.23,97.98,692,109.87
	c225.45,12.31,404.24,75.05,550.56,155.19c40.07,21.95,74.35,50.83,100.09,84.9c61.81,81.81,67.98,151.67,110.95,185.19
	c38.41,29.96,241.54,74.41,243.4,284.61c0.04,4.18-5.06,6.96-9.5,5.16C1450.73,728.83,1126.15,973.31,1231.4,1071z"/>
<path class="st1" d="M1210.64,1005.86c0,0-2.39-2.51-6.88-6.93c-35.41-34.92-201.34-189.28-354.61-175.41
	c19.39-44.39-82.9-115.52-118.59-207.73c-19.37-50.05,0.21-99.22-20.72-119.54c0,0,65.56,11.5,123.19,29.67
	c-136.85-47.08-347.7-190.86-347.7-190.86l226.81,38.46c-145.96-38-260.27-90.23-338.49-165.51l193.42,44.03
	c-137.8-54.33-197.16-110.86-249.93-187.58c0,0,185.46,78.17,406.51,90.24c218.85,11.95,409.54,86.45,544.58,167.67
	c97.86,91.83,128.89,223.84,128.89,223.84s262.44,71.22,252.51,246.06c-79.33,7.62-161.5-51.42-313.48,65.81
	C1184.19,983.11,1210.64,1005.86,1210.64,1005.86z"/>
<path class="st0" d="M1203.76,998.92c57.28-60.55,109.6-76.28,204.94-176.06c74.48-20.99,147.02-14.86,240.94-30.61
	c-1.83-116.72-90.8-196.71-252.46-246.06c0,0-50.7,9.35-108.22-27.48c-37.35-23.91-92.79-73.6-118.97-85.32
	c-72.18-32.32-160.82-52.1-159.65-48.52c0,0,123.24,269.63,123.24,369.28c12.66,66.43-99.21,117.39-99.21,117.39"/>
<path class="st2" d="M1672.35,799.09c27.06-77.38-106.92-203.22-197.64-233.48c-3.27,27.95-7.11,67.7-74.45,65.13
	C1489.58,658.82,1628.51,746.08,1672.35,799.09z"/>
<path class="st2" d="M1660.45,799.09c-56.05-47.46-184.06-115.55-260.2-138.4c22.51,35.8,35.05,108.13,5.37,143.93
	C1475.22,786.57,1590.86,781.04,1660.45,799.09z"/>
<path class="st3" d="M1369.38,573.13c-73.44-3.51-149.85-62.13-220.36-129.31c2.49,57.6,22.85,122.16,75.35,150.19
	C1285.18,610.81,1332.56,595.58,1369.38,573.13z"/>
</svg>
