<?xml version="1.0" encoding="utf-8"?>
<!-- Generator: Adobe Illustrator 25.2.1, SVG Export Plug-In . SVG Version: 6.00 Build 0)  -->
<svg version="1.1" id="Layer_1" xmlns="http://www.w3.org/2000/svg" xmlns:xlink="http://www.w3.org/1999/xlink" x="0px" y="0px"
	 viewBox="0 0 1366 768" style="enable-background:new 0 0 1366 768;" xml:space="preserve">
<style type="text/css">
	.st0{fill:#666666;stroke:#FFFFFF;stroke-width:0.8226;stroke-miterlimit:10;}
	.st1{fill:#ED1C24;stroke:#FFFFFF;stroke-width:0.8226;stroke-miterlimit:10;}
	.st2{fill:#666666;}
	.st3{fill:none;stroke:#FFFFFF;stroke-width:11.5159;stroke-miterlimit:10;}
	.st4{fill:none;}
	.st5{fill:#FF0000;stroke:#FFFFFF;stroke-width:11.5159;stroke-miterlimit:10;}
	.st6{fill:#FF0000;stroke:#FFFFFF;stroke-width:8.2256;stroke-miterlimit:10;}
</style>
<g>
	<path class="st0" d="M355.45,544.93c-17.74-34.02-33.9-66.86-36.57-89.6c-59.64-12.43-116.16-39.04-155-65.77
		c14.05,50.69,68.6,104.92,143.68,99.47L355.45,544.93z"/>
	<path class="st0" d="M786.53,240.18H631.34c-2.33,0-2.99,9.43-0.7,10.04l32.71,3.99c1.1,0.13,2.19,0.38,3.23,0.89
		c4.99,2.48,8.44,9.01,8.47,16.5l0.82,195.64h62.52l-0.19-194.11c-0.01-8.56,3.83-16.05,9.43-19.09c1.5-0.81,3.12-1.16,4.73-1.21
		l33-1.09C787.3,251.29,788.5,240.18,786.53,240.18z"/>
	<path class="st0" d="M531.79,697.83c-102.53-136.59-129.09-224.73-28.3-343.88C333.69,251.86,127.11,86.25,87.23,10.13
		c-18.19-3.37-24.74,144.82,60.98,222c50.85,45.79,257.19,162,259.05,159.48C368.92,503.81,433.52,595.87,531.79,697.83z"/>
	<path class="st1" d="M478.23,654.54c-62.17-86.17-132.76-167.78-84.76-255.39c-128.83-56.21-270.25-138.72-288.94-202.59
		c-12.58-2.33-19.37,102.49,42.17,153.55c46.2,38.33,188.73,100.05,187.85,97C337.78,525.87,420.97,592.79,478.23,654.54z"/>
	<path class="st0" d="M814.08,697.83c102.53-136.59,129.09-224.73,28.3-343.88c169.8-102.09,376.38-267.71,416.25-343.82
		c18.19-3.37,24.74,144.82-60.98,222c-50.85,45.79-257.19,162-259.05,159.48C976.94,503.81,912.35,595.87,814.08,697.83z"/>
	<path class="st1" d="M867.63,654.54c62.17-86.17,132.76-167.78,84.76-255.39c128.83-56.21,270.25-138.72,288.94-202.59
		c12.58-2.33,19.37,102.49-42.17,153.55c-46.2,38.33-188.73,100.05-187.85,97C1008.09,525.87,924.9,592.79,867.63,654.54z"/>
	<path class="st0" d="M990.41,544.93c17.74-34.02,33.9-66.86,36.57-89.6c59.64-12.43,116.16-39.04,155-65.77
		c-14.05,50.69-68.6,104.92-143.68,99.47L990.41,544.93z"/>
	<rect x="676.69" y="425.53" class="st2" width="61" height="58.57"/>
	<line class="st3" x1="683.98" y1="715.92" x2="683.97" y2="715.92"/>
	<path class="st4" d="M710.29,343.11c-98.83,0-178.94,75.63-178.94,168.93c0,77.23,54.9,142.35,129.86,162.5
		c9.57-17.7,15.7-40.44,15.46-59.46l-0.78-152.91h62.52l0.16,137.35c0,29.77-8.33,58.04-22.99,81.38
		c96.38-2.64,173.65-77.23,173.65-168.85C889.24,418.75,809.12,343.11,710.29,343.11z"/>
	<path class="st5" d="M659.55,688.74c2.88-3.75,5.57-8.01,8.05-12.58c-74.96-20.14-129.86-85.27-129.86-162.5
		c0-93.3,80.12-168.93,178.94-168.93s178.94,75.63,178.94,168.93c0-112.6-96.68-203.87-215.95-203.87s-215.95,91.28-215.95,203.87
		c0,100.21,76.58,183.53,177.51,200.65c6.92-8.29,12.81-16.26,17.1-23.74C658.7,689.92,659.1,689.32,659.55,688.74z"/>
	<path class="st6" d="M895.62,512.05c0,91.63-77.27,166.21-173.65,168.85c-8.45,13.45-19.01,25.25-31.29,34.76c1-0.05,2-0.12,3-0.18
		l30.27-32.75l-30.27,32.75C806.42,708.66,895.62,620.2,895.62,512.05z"/>
	<path class="st2" d="M738.41,462.18h-62.52l0.78,152.91c0.24,19.02-5.9,41.76-15.46,59.46c15.6,4.19,32.06,6.44,49.09,6.44
		c1.77,0,3.53-0.03,5.29-0.08c14.66-23.33,22.99-51.6,22.99-81.38L738.41,462.18z"/>
	<path class="st2" d="M634.84,712.7c-9.98,11.96-22.1,24.58-34.71,37.34c-3.03,3.82,0.7,9.59,4.87,7.53l58.55-28.9
		c7.36-3.63,14.29-8.01,20.74-13.01c-3.65,0.17-7.32,0.26-11.01,0.26C660.16,715.92,647.32,714.81,634.84,712.7z"/>
	<path class="st2" d="M715.58,680.9c-1.76,0.05-3.52,0.08-5.29,0.08c-17.02,0-33.49-2.24-49.09-6.44
		c-2.47,4.58-5.16,8.84-8.05,12.58c-0.45,0.58-0.85,1.18-1.22,1.82c-4.29,7.48-10.19,15.46-17.1,23.74
		c12.48,2.12,25.32,3.22,38.44,3.22c3.69,0,7.36-0.09,11.01-0.26C696.57,706.15,707.13,694.35,715.58,680.9z"/>
</g>
</svg>
