<?xml version="1.0" encoding="utf-8"?>
<!-- Generator: Adobe Illustrator 25.2.1, SVG Export Plug-In . SVG Version: 6.00 Build 0)  -->
<svg version="1.1" id="Layer_1" xmlns="http://www.w3.org/2000/svg" xmlns:xlink="http://www.w3.org/1999/xlink" x="0px" y="0px"
	 viewBox="0 0 446 153" style="enable-background:new 0 0 446 153;" xml:space="preserve">
<style type="text/css">
	.st0{fill:#39B54A;stroke:#8CC63F;stroke-miterlimit:10;}
	.st1{fill:#009245;}
	.st2{font-family:'AKbalthomMolleak2';}
	.st3{font-size:93.98px;}
	.st4{fill:#CCCCCC;}
	.st5{fill:none;stroke:#8CC63F;stroke-width:0.75;stroke-miterlimit:10;}
</style>
<path class="st0" d="M59.29,36.65l1.63,14.85L53,51.48c-12.87-0.04-24.63-7.31-30.41-18.81L9.16,6L43,16.76
	C51.89,19.59,58.27,27.38,59.29,36.65z"/>
<text transform="matrix(0.821 0 0 1 50.9136 115.625)"><tspan x="0" y="0" class="st1 st2 st3">NATURE</tspan><tspan x="283.32" y="0" class="st4 st2 st3"> LIFE</tspan></text>
<path class="st5" d="M56.5,44.5c0,0-30-22-37-33"/>
<line class="st5" x1="52.5" y1="39.5" x2="52.5" y2="28.5"/>
<line class="st5" x1="42.5" y1="30.5" x2="42.5" y2="20.5"/>
<line class="st5" x1="31.5" y1="21.5" x2="31.5" y2="16.5"/>
<line class="st5" x1="23.5" y1="22.5" x2="20.5" y2="22.5"/>
<line class="st5" x1="35" y1="30.5" x2="24" y2="30.5"/>
<line class="st5" x1="44.5" y1="40.5" x2="31.5" y2="40.5"/>
</svg>
